<?xml version="1.0" standalone="yes"?>

<svg version="1.1" viewBox="0.0 0.0 1238.0 1064.0" fill="none" stroke="none" stroke-linecap="square" stroke-miterlimit="10" clip-path="url(#p.0)" xmlns="http://www.w3.org/2000/svg" xmlns:xlink="http://www.w3.org/1999/xlink"><clipPath id="p.0"><path d="M0 0L1238.0 0L1238.0 1064.0L0 1064.0L0 0Z" clip-rule="nonzero"></path></clipPath><path d="M0 0L1238.0 0L1238.0 1064.0L0 1064.0Z" fill-rule="nonzero" fill="#ff9900"></path><path d="M478.04318 144.02332L731.807 583.55084" fill-rule="nonzero" stroke="#000000" stroke-width="12.0" stroke-linejoin="round" stroke-linecap="butt"></path><path d="M478.04318 291.32697L731.807 730.8545" fill-rule="nonzero" stroke="#000000" stroke-width="12.0" stroke-linejoin="round" stroke-linecap="butt"></path><path d="M470.04318 364.97876L723.80695 804.5063" fill-rule="nonzero" stroke="#000000" stroke-width="12.0" stroke-linejoin="round" stroke-linecap="butt"></path><path d="M772.27936 144.02332L518.51556 583.55084" fill-rule="nonzero" stroke="#000000" stroke-width="12.0" stroke-linejoin="round" stroke-linecap="butt"></path><path d="M780.27936 364.97876L526.51556 804.5063" fill-rule="nonzero" stroke="#000000" stroke-width="12.0" stroke-linejoin="round" stroke-linecap="butt"></path><path d="M764.2794 587.32697L510.51566 1026.8545" fill-rule="nonzero" stroke="#000000" stroke-width="12.0" stroke-linejoin="round" stroke-linecap="butt"></path><path d="M478.04315 440.02332L731.80695 879.55084" fill-rule="nonzero" stroke="#000000" stroke-width="12.0" stroke-linejoin="round" stroke-linecap="butt"></path><path d="M478.04315 587.32697L731.80695 1026.8545" fill-rule="nonzero" stroke="#000000" stroke-width="12.0" stroke-linejoin="round" stroke-linecap="butt"></path><path d="M1134.8746 236.03354L1134.8746 236.03354C1129.1697 246.62863 1088.5555 235.83885 1044.1605 211.93387C999.7656 188.02888 968.40125 160.06105 974.10626 149.46594L974.10626 149.46594C979.81134 138.87083 948.44696 110.903 904.052 86.99802C859.65704 63.093037 819.04297 52.30325 813.3379 62.89835L730.69855 216.37137C736.4036 205.77628 777.0177 216.56606 821.4127 240.47104C865.8077 264.37604 897.172 292.34387 891.467 302.93896C885.7619 313.53406 917.1263 341.50192 961.52124 365.4069C1005.9162 389.3119 1046.5303 400.10165 1052.2354 389.50656Z" fill-rule="nonzero" fill="#ffffff" stroke="#000000" stroke-width="12.0" stroke-linejoin="round" stroke-linecap="butt"></path><path d="M988.7401 226.20245L988.7401 226.20245C988.7401 195.78021 963.6889 171.11812 932.7867 171.11812L932.7867 171.11812C917.9469 171.11812 903.7149 176.92162 893.2216 187.25194C882.72833 197.58226 876.83325 211.59317 876.83325 226.20245L876.83325 226.20245C876.83325 256.6247 901.88446 281.28677 932.7867 281.28677L932.7867 281.28677C963.6889 281.28677 988.7401 256.6247 988.7401 226.20245Z" fill-rule="nonzero" fill="#ff9900" stroke="#000000" stroke-width="8.0" stroke-linejoin="round" stroke-linecap="butt"></path><path d="M959.0686 203.22359L953.8769 207.74664L949.5436 202.01714L952.41 208.58083L945.8381 210.74724L952.8013 210.28078L953.07294 217.34921L954.5101 210.49722L961.2499 212.69934L955.17487 208.93103Z" fill-rule="nonzero" fill="#000000" stroke="#000000" stroke-width="2.0" stroke-linejoin="round" stroke-linecap="butt"></path><path d="M1134.8746 383.3372L1134.8746 383.3372C1129.1697 393.93228 1088.5555 383.1425 1044.1605 359.23752C999.7656 335.33252 968.40125 307.3647 974.10626 296.7696L974.10626 296.7696C979.81134 286.17447 948.44696 258.20663 904.052 234.30167C859.65704 210.39668 819.04297 199.60689 813.3379 210.202L730.69855 363.67502C736.4036 353.07993 777.0177 363.8697 821.4127 387.7747C865.8077 411.67966 897.172 439.64752 891.467 450.2426C885.7619 460.8377 917.1263 488.80554 961.52124 512.7105C1005.9162 536.61554 1046.5303 547.40533 1052.2354 536.8102Z" fill-rule="nonzero" fill="#ffffff" stroke="#000000" stroke-width="12.0" stroke-linejoin="round" stroke-linecap="butt"></path><path d="M988.74005 375.67465L988.74005 375.67465C988.74005 345.2524 963.68884 320.5903 932.7866 320.5903L932.7866 320.5903C917.94684 320.5903 903.7149 326.39383 893.22156 336.72415C882.7283 347.05447 876.8332 361.06537 876.8332 375.67465L876.8332 375.67465C876.8332 406.0969 901.8844 430.759 932.7866 430.759L932.7866 430.759C963.68884 430.759 988.74005 406.0969 988.74005 375.67465Z" fill-rule="nonzero" fill="#ff9900" stroke="#000000" stroke-width="8.0" stroke-linejoin="round" stroke-linecap="butt"></path><path d="M959.06854 344.6958L953.87683 349.21884L949.5435 343.48935L952.4099 350.05304L945.838 352.21945L952.8013 351.753L953.07294 358.8214L954.51 351.96942L961.2498 354.17154L955.1748 350.40323Z" fill-rule="nonzero" fill="#000000" stroke="#000000" stroke-width="2.0" stroke-linejoin="round" stroke-linecap="butt"></path><path d="M1134.8748 532.0335L1134.8748 532.0335C1129.1697 542.62866 1088.5555 531.83887 1044.1606 507.93387C999.7656 484.0289 968.4013 456.06104 974.1063 445.46594L974.1063 445.46594C979.8114 434.87085 948.447 406.90298 904.05206 382.99802C859.6571 359.09305 819.043 348.30325 813.33795 358.89835L730.6986 512.37134C736.4037 501.77628 777.01776 512.56604 821.4127 536.471C865.8077 560.37604 897.17206 588.3439 891.46704 598.93896C885.76196 609.53406 917.12634 637.5019 961.5213 661.40686C1005.91626 685.3119 1046.5304 696.1016 1052.2354 685.50653Z" fill-rule="nonzero" fill="#ffffff" stroke="#000000" stroke-width="12.0" stroke-linejoin="round" stroke-linecap="butt"></path><path d="M988.74005 527.6747L988.74005 527.6747C988.74005 497.2524 963.68884 472.5903 932.7866 472.5903L932.7866 472.5903C917.94684 472.5903 903.7149 478.39383 893.22156 488.72415C882.7283 499.05447 876.8332 513.06537 876.8332 527.6747L876.8332 527.6747C876.8332 558.0969 901.8844 582.759 932.7866 582.759L932.7866 582.759C963.68884 582.759 988.74005 558.0969 988.74005 527.6747Z" fill-rule="nonzero" fill="#ff9900" stroke="#000000" stroke-width="8.0" stroke-linejoin="round" stroke-linecap="butt"></path><path d="M959.06854 496.6958L953.87683 501.21884L949.5435 495.48935L952.4099 502.05304L945.838 504.21945L952.8013 503.753L953.07294 510.8214L954.51 503.96942L961.2498 506.17154L955.1748 502.40323Z" fill-rule="nonzero" fill="#000000" stroke="#000000" stroke-width="2.0" stroke-linejoin="round" stroke-linecap="butt"></path><path d="M1134.8748 679.33716L1134.8748 679.33716C1129.1697 689.93225 1088.5555 679.1425 1044.1606 655.2375C999.7656 631.3325 968.4013 603.3647 974.1063 592.7696L974.1063 592.7696C979.8114 582.1745 948.447 554.20667 904.05206 530.30164C859.6571 506.39667 819.043 495.6069 813.33795 506.202L730.6986 659.675C736.4037 649.0799 777.01776 659.8697 821.4127 683.77466C865.8077 707.6796 897.17206 735.6475 891.46704 746.2426C885.76196 756.8377 917.12634 784.80554 961.5213 808.7105C1005.91626 832.6155 1046.5304 843.4053 1052.2354 832.8102Z" fill-rule="nonzero" fill="#ffffff" stroke="#000000" stroke-width="12.0" stroke-linejoin="round" stroke-linecap="butt"></path><path d="M988.74005 671.6747L988.74005 671.6747C988.74005 641.25244 963.68884 616.59033 932.7866 616.59033L932.7866 616.59033C917.94684 616.59033 903.7149 622.3938 893.22156 632.7241C882.7283 643.05444 876.8332 657.06537 876.8332 671.6747L876.8332 671.6747C876.8332 702.0969 901.8844 726.759 932.7866 726.759L932.7866 726.759C963.68884 726.759 988.74005 702.0969 988.74005 671.6747Z" fill-rule="nonzero" fill="#ff9900" stroke="#000000" stroke-width="8.0" stroke-linejoin="round" stroke-linecap="butt"></path><path d="M959.06854 640.6958L953.87683 645.2189L949.5435 639.4893L952.4099 646.05304L945.838 648.2194L952.8013 647.753L953.07294 654.8214L954.51 647.9694L961.2498 650.1716L955.1748 646.40326Z" fill-rule="nonzero" fill="#000000" stroke="#000000" stroke-width="2.0" stroke-linejoin="round" stroke-linecap="butt"></path><path d="M115.186745 240.42198L115.186745 240.42198C120.8918 251.01709 161.50589 240.2273 205.90086 216.32233C250.29582 192.41734 281.6602 164.4495 275.95514 153.8544L275.95514 153.8544C270.2501 143.2593 301.61447 115.29145 346.00943 91.38647C390.4044 67.48149 431.0185 56.6917 436.72354 67.286804L519.36285 220.75983C513.6578 210.16472 473.0437 220.95451 428.64874 244.8595C384.25378 268.76447 352.8894 296.73233 358.59445 307.32742C364.29953 317.92252 332.93515 345.89035 288.5402 369.79535C244.14522 393.70032 203.53111 404.4901 197.82607 393.89502Z" fill-rule="nonzero" fill="#ffffff" stroke="#000000" stroke-width="12.0" stroke-linejoin="round" stroke-linecap="butt"></path><path d="M261.32135 230.5909L261.32135 230.5909C261.32135 200.16866 286.37253 175.50656 317.27478 175.50656L317.27478 175.50656C332.11453 175.50656 346.34653 181.31007 356.8398 191.6404C367.33313 201.9707 373.2282 215.98163 373.2282 230.5909L373.2282 230.5909C373.2282 261.01315 348.177 285.67523 317.27478 285.67523L317.27478 285.67523C286.37253 285.67523 261.32135 261.01315 261.32135 230.5909Z" fill-rule="nonzero" fill="#ff9900" stroke="#000000" stroke-width="8.0" stroke-linejoin="round" stroke-linecap="butt"></path><path d="M290.99283 207.61205L296.18454 212.1351L300.51785 206.40558L297.65146 212.96928L304.22336 215.1357L297.26016 214.66924L296.98846 221.73767L295.55136 214.88567L288.81155 217.08778L294.8866 213.31949Z" fill-rule="nonzero" fill="#000000" stroke="#000000" stroke-width="2.0" stroke-linejoin="round" stroke-linecap="butt"></path><path d="M115.186745 387.72562L115.186745 387.72562C120.8918 398.32074 161.50589 387.53094 205.90086 363.62598C250.29582 339.72098 281.6602 311.75314 275.95514 301.15805L275.95514 301.15805C270.2501 290.56293 301.61447 262.5951 346.00943 238.69011C390.4044 214.78513 431.0185 203.99535 436.72354 214.59044L519.36285 368.06348C513.6578 357.46835 473.0437 368.25815 428.64874 392.16315C384.25378 416.0681 352.8894 444.03595 358.59445 454.63107C364.29953 465.22617 332.93515 493.194 288.5402 517.099C244.14522 541.00397 203.53111 551.79376 197.82607 541.19867Z" fill-rule="nonzero" fill="#ffffff" stroke="#000000" stroke-width="12.0" stroke-linejoin="round" stroke-linecap="butt"></path><path d="M261.32138 380.0631L261.32138 380.0631C261.32138 349.64087 286.3726 324.97876 317.2748 324.97876L317.2748 324.97876C332.1146 324.97876 346.34656 330.7823 356.83984 341.1126C367.33316 351.4429 373.22824 365.45383 373.22824 380.0631L373.22824 380.0631C373.22824 410.48535 348.17703 435.14743 317.2748 435.14743L317.2748 435.14743C286.3726 435.14743 261.32138 410.48535 261.32138 380.0631Z" fill-rule="nonzero" fill="#ff9900" stroke="#000000" stroke-width="8.0" stroke-linejoin="round" stroke-linecap="butt"></path><path d="M290.9929 349.08426L296.18457 353.6073L300.5179 347.87778L297.65152 354.4415L304.22342 356.6079L297.2602 356.14145L296.9885 363.20987L295.5514 356.35788L288.81158 358.56L294.88663 354.7917Z" fill-rule="nonzero" fill="#000000" stroke="#000000" stroke-width="2.0" stroke-linejoin="round" stroke-linecap="butt"></path><path d="M115.186714 536.422L115.186714 536.422C120.89177 547.0171 161.50586 536.2273 205.90082 512.3223C250.29579 488.41733 281.66016 460.4495 275.9551 449.8544L275.9551 449.8544C270.25003 439.2593 301.6144 411.29144 346.00937 387.38647C390.40433 363.48148 431.01843 352.6917 436.72348 363.2868L519.3628 516.7598C513.6578 506.1647 473.04367 516.9545 428.64868 540.8595C384.25372 564.76447 352.88937 592.7323 358.59442 603.3274C364.29947 613.9225 332.9351 641.8904 288.54013 665.79535C244.14517 689.7003 203.53108 700.4901 197.82603 689.895Z" fill-rule="nonzero" fill="#ffffff" stroke="#000000" stroke-width="12.0" stroke-linejoin="round" stroke-linecap="butt"></path><path d="M261.32138 532.0631L261.32138 532.0631C261.32138 501.64087 286.3726 476.97876 317.2748 476.97876L317.2748 476.97876C332.1146 476.97876 346.34656 482.7823 356.83984 493.1126C367.33316 503.4429 373.22824 517.45386 373.22824 532.0631L373.22824 532.0631C373.22824 562.48535 348.17703 587.14746 317.2748 587.14746L317.2748 587.14746C286.3726 587.14746 261.32138 562.48535 261.32138 532.0631Z" fill-rule="nonzero" fill="#ff9900" stroke="#000000" stroke-width="8.0" stroke-linejoin="round" stroke-linecap="butt"></path><path d="M290.9929 501.08426L296.18457 505.6073L300.5179 499.87778L297.65152 506.4415L304.22342 508.6079L297.2602 508.14145L296.9885 515.20984L295.5514 508.35788L288.81158 510.56L294.88663 506.7917Z" fill-rule="nonzero" fill="#000000" stroke="#000000" stroke-width="2.0" stroke-linejoin="round" stroke-linecap="butt"></path><path d="M115.186714 683.72565L115.186714 683.72565C120.89177 694.32074 161.50586 683.53094 205.90082 659.626C250.29579 635.721 281.66016 607.7531 275.9551 597.158L275.9551 597.158C270.25003 586.5629 301.6144 558.5951 346.00937 534.6901C390.40433 510.78513 431.01843 499.99533 436.72348 510.59045L519.3628 664.0635C513.6578 653.4684 473.04367 664.2581 428.64868 688.16315C384.25372 712.0681 352.88937 740.03595 358.59442 750.63104C364.29947 761.22614 332.9351 789.194 288.54013 813.099C244.14517 837.00397 203.53108 847.79376 197.82603 837.19867Z" fill-rule="nonzero" fill="#ffffff" stroke="#000000" stroke-width="12.0" stroke-linejoin="round" stroke-linecap="butt"></path><path d="M261.32138 676.0631L261.32138 676.0631C261.32138 645.64087 286.3726 620.97876 317.2748 620.97876L317.2748 620.97876C332.1146 620.97876 346.34656 626.7823 356.83984 637.1126C367.33316 647.44293 373.22824 661.45386 373.22824 676.0631L373.22824 676.0631C373.22824 706.48535 348.17703 731.14746 317.2748 731.14746L317.2748 731.14746C286.3726 731.14746 261.32138 706.48535 261.32138 676.0631Z" fill-rule="nonzero" fill="#ff9900" stroke="#000000" stroke-width="8.0" stroke-linejoin="round" stroke-linecap="butt"></path><path d="M290.9929 645.0842L296.18457 649.6073L300.5179 643.8778L297.65152 650.44147L304.22342 652.6079L297.2602 652.1414L296.9885 659.20984L295.5514 652.35785L288.81158 654.56L294.88663 650.7917Z" fill-rule="nonzero" fill="#000000" stroke="#000000" stroke-width="2.0" stroke-linejoin="round" stroke-linecap="butt"></path><path d="M361.91516 516.0L361.91516 516.0C361.91516 374.1022 477.01596 259.07132 619.0 259.07132L619.0 259.07132C687.1831 259.07132 752.57367 286.1405 800.78644 334.324C848.9992 382.50748 876.08484 447.85828 876.08484 516.0L876.08484 516.0C876.08484 657.8978 760.984 772.9287 619.0 772.9287L619.0 772.9287C477.01596 772.9287 361.91516 657.8978 361.91516 516.0Z" fill-rule="nonzero" fill="#ff9900" stroke="#000000" stroke-width="16.0" stroke-linejoin="round" stroke-linecap="butt"></path><path d="M498.2445 371.50598L522.0983 392.60278L542.00836 365.87872L528.8384 396.49365L559.03375 406.5984L527.0404 404.4227L525.7921 437.3918L519.18915 405.43222L488.2223 415.70352L516.13477 398.1271Z" fill-rule="nonzero" fill="#000000" stroke="#000000" stroke-width="2.0" stroke-linejoin="round" stroke-linecap="butt"></path><path d="M197.99213 986.86615Q311.1843 974.92993 424.37646 969.4121L319.1245 897.99615Q619.0 875.4724 918.8755 897.99615L813.6235 969.4121Q926.8157 974.92993 1040.0078 986.86615L934.75586 899.2205L1040.0078 830.998Q979.44165 824.61127 918.8755 820.0621L918.8755 742.128Q619.0 719.60425 319.1245 742.128L319.1245 820.0621Q258.55832 824.61127 197.99213 830.998L303.24408 899.2205Z" fill-rule="nonzero" fill="#ffffff"></path><path d="M424.37646 891.478L424.37646 969.4121L319.1245 897.99615Q619.0 875.4724 918.8755 897.99615L813.6235 969.4121L813.6235 891.478Q619.0 881.9906 424.37646 891.478Z" fill-rule="nonzero" fill="#cbcbcb"></path><path d="M197.99213 986.86615L303.24408 899.2205L197.99213 830.998Q258.55832 824.61127 319.1245 820.0621L319.1245 742.128Q619.0 719.60425 918.8755 742.128L918.8755 820.0621Q979.44165 824.61127 1040.0078 830.998L934.75586 899.2205L1040.0078 986.86615Q926.8157 974.92993 813.6235 969.4121L918.8755 897.99615Q619.0 875.4724 319.1245 897.99615L424.37646 969.4121Q311.1843 974.92993 197.99213 986.86615ZM319.1245 897.99615L319.1245 820.0621M918.8755 820.0621L918.8755 897.99615M424.37646 891.478L424.37646 969.4121M813.6235 969.4121L813.6235 891.478" fill-rule="nonzero" stroke="#000000" stroke-width="12.0" stroke-linejoin="round" stroke-linecap="butt"></path><path d="M473.9453 846.1421L473.9453 777.42334L496.21094 777.42334Q508.8672 777.42334 512.71094 778.4546Q518.6172 780.00146 522.60156 785.18115Q526.58594 790.36084 526.58594 798.56396Q526.58594 804.8921 524.28906 809.2046Q521.9922 813.5171 518.4531 815.978Q514.91406 818.43896 511.2578 819.23584Q506.28906 820.2202 496.8672 820.2202L487.8203 820.2202L487.8203 846.1421L473.9453 846.1421ZM487.8203 789.04834L487.8203 808.54834L495.41406 808.54834Q503.6172 808.54834 506.3828 807.4702Q509.14844 806.3921 510.71875 804.0952Q512.28906 801.79834 512.28906 798.75146Q512.28906 795.00146 510.08594 792.56396Q507.8828 790.12646 504.5078 789.5171Q502.02344 789.04834 494.52344 789.04834L487.8203 789.04834ZM538.35156 846.1421L538.35156 777.98584L552.22656 777.98584L552.22656 834.56396L586.72656 834.56396L586.72656 846.1421L538.35156 846.1421ZM596.6172 846.1421L596.6172 777.42334L618.8828 777.42334Q631.53906 777.42334 635.3828 778.4546Q641.28906 780.00146 645.27344 785.18115Q649.2578 790.36084 649.2578 798.56396Q649.2578 804.8921 646.96094 809.2046Q644.66406 813.5171 641.125 815.978Q637.58594 818.43896 633.9297 819.23584Q628.96094 820.2202 619.53906 820.2202L610.4922 820.2202L610.4922 846.1421L596.6172 846.1421ZM610.4922 789.04834L610.4922 808.54834L618.08594 808.54834Q626.28906 808.54834 629.0547 807.4702Q631.8203 806.3921 633.3906 804.0952Q634.96094 801.79834 634.96094 798.75146Q634.96094 795.00146 632.7578 792.56396Q630.5547 790.12646 627.1797 789.5171Q624.6953 789.04834 617.1953 789.04834L610.4922 789.04834ZM686.89844 846.1421L686.89844 777.42334L700.77344 777.42334L700.77344 846.1421L686.89844 846.1421ZM731.52344 846.1421L706.96094 777.42334L722.0078 777.42334L739.39844 828.2827L756.22656 777.42334L770.9453 777.42334L746.33594 846.1421L731.52344 846.1421Z" fill-rule="nonzero" fill="#000000"></path></svg>

