<?xml version="1.0" standalone="yes"?>

<svg version="1.1" viewBox="0.0 0.0 468.0 468.0" fill="none" stroke="none" stroke-linecap="square" stroke-miterlimit="10" clip-path="url(#p.0)" xmlns="http://www.w3.org/2000/svg" xmlns:xlink="http://www.w3.org/1999/xlink"><clipPath id="p.0"><path d="M0 0L468.0 0L468.0 468.0L0 468.0L0 0Z" clip-rule="nonzero"></path></clipPath><path d="M47.83752 235.99901L47.83752 235.99901C47.83752 132.20425 132.04324 48.061993 235.91628 48.061993L235.91628 48.061993C285.79785 48.061993 333.6364 67.86244 368.90802 103.10747C404.17963 138.3525 423.99503 186.15501 423.99503 235.99901L423.99503 235.99901C423.99503 339.79376 339.7893 423.936 235.91628 423.936L235.91628 423.936C132.04324 423.936 47.83752 339.79376 47.83752 235.99901Z" fill-rule="nonzero" fill="#ff9900" stroke="#000000" stroke-width="16.0" stroke-linejoin="round" stroke-linecap="butt"></path><path d="M147.57367 130.30519L165.02472 145.73697L179.59055 126.18898L169.95561 148.58305L192.04602 155.97443L168.64024 154.38293L167.72704 178.49905L162.89641 155.12138L140.24161 162.63458L160.6619 149.77788Z" fill-rule="nonzero" fill="#000000" stroke="#000000" stroke-width="2.0" stroke-linejoin="round" stroke-linecap="butt"></path></svg>

