<?xml version="1.0" standalone="yes"?>

<svg version="1.1" viewBox="0.0 0.0 526.0 946.0" fill="none" stroke="none" stroke-linecap="square" stroke-miterlimit="10" clip-path="url(#p.0)" xmlns="http://www.w3.org/2000/svg" xmlns:xlink="http://www.w3.org/1999/xlink"><clipPath id="p.0"><path d="M0 0L526.0 0L526.0 946.0L0 946.0L0 0Z" clip-rule="nonzero"></path></clipPath><path d="M0 0L526.0 0L526.0 946.0L0 946.0Z" fill-rule="nonzero" fill="#110a2b"></path><path d="M71.772835 802.138L71.772835 802.138C70.07461 612.0687 185.50398 442.48914 354.51505 386.7558" fill-rule="nonzero" stroke="#ffffff" stroke-width="8.0" stroke-linejoin="round" stroke-linecap="butt"></path><path d="M80.002235 793.69305L80.002235 793.69305C52.90478 598.3547 129.8418 408.02396 273.0292 316.17303" fill-rule="nonzero" stroke="#ffffff" stroke-width="8.0" stroke-linejoin="round" stroke-linecap="butt"></path><path d="M79.80177 765.8267L79.80177 765.8267C88.27513 637.4126 209.34334 529.45715 368.42834 508.461" fill-rule="nonzero" stroke="#ffffff" stroke-width="8.0" stroke-linejoin="round" stroke-linecap="butt"></path><path d="M70.61138 796.66876L70.61138 796.66876C49.324 595.7552 71.00854 401.6549 126.95922 292.2941" fill-rule="nonzero" stroke="#ffffff" stroke-width="8.0" stroke-linejoin="round" stroke-linecap="butt"></path><path d="M73.92125 822.063L73.92125 822.063C73.92125 718.26825 158.12697 634.126 262.0 634.126L262.0 634.126C311.8816 634.126 359.72015 653.92645 394.99176 689.17145C430.26337 724.4165 450.07874 772.219 450.07874 822.063L450.07874 822.063C450.07874 925.8577 365.87302 1010.0 262.0 1010.0L262.0 1010.0C158.12697 1010.0 73.92125 925.8577 73.92125 822.063Z" fill-rule="nonzero" fill="#ff9900" stroke="#000000" stroke-width="16.0" stroke-linejoin="round" stroke-linecap="butt"></path><path d="M173.65741 716.36914L191.10846 731.80096L205.6743 712.2529L196.03935 734.64703L218.12976 742.0384L194.72398 740.4469L193.81078 764.56305L188.98015 741.18536L166.32535 748.69855L186.74564 735.84186Z" fill-rule="nonzero" fill="#000000" stroke="#000000" stroke-width="2.0" stroke-linejoin="round" stroke-linecap="butt"></path><path d="M120.29051 231.02605L120.29051 231.02605C120.67294 215.86336 127.33395 201.53056 138.74902 191.308L177.54446 232.67119Z" fill-rule="nonzero" fill="#ff9900" stroke="#000000" stroke-width="8.0" stroke-linejoin="round" stroke-linecap="butt"></path><path d="M138.24678 273.2465L138.24678 273.2465C126.570045 262.45267 120.03313 247.38983 120.22493 231.71925L177.49217 232.65445Z" fill-rule="nonzero" fill="#ff9900" stroke="#000000" stroke-width="8.0" stroke-linejoin="round" stroke-linecap="butt"></path><path d="M179.2338 288.55374L179.2338 288.55374C164.05817 288.96985 149.30602 283.47708 138.22046 273.283L177.35675 232.59036Z" fill-rule="nonzero" fill="#ff9900" stroke="#000000" stroke-width="8.0" stroke-linejoin="round" stroke-linecap="butt"></path><path d="M218.10367 272.26025C207.88374 282.23648 194.15967 288.04102 179.69267 288.506L177.53947 232.55087Z" fill-rule="nonzero" fill="#ff9900" stroke="#000000" stroke-width="8.0" stroke-linejoin="round" stroke-linecap="butt"></path><path d="M295.82874 240.39563L295.82874 240.39563C306.73978 229.85812 321.54315 224.3182 336.8506 225.04391L335.4752 281.7433Z" fill-rule="nonzero" fill="#ff9900" stroke="#000000" stroke-width="8.0" stroke-linejoin="round" stroke-linecap="butt"></path><path d="M279.00357 283.08545L279.00357 283.08545C278.25458 267.19907 284.1641 251.87694 295.29562 240.84366L335.44968 281.6947Z" fill-rule="nonzero" fill="#ff9900" stroke="#000000" stroke-width="8.0" stroke-linejoin="round" stroke-linecap="butt"></path><path d="M297.47247 322.7522L297.47247 322.7522C286.3666 312.4005 279.70758 298.13556 278.95923 283.093L335.39813 281.55402Z" fill-rule="nonzero" fill="#ff9900" stroke="#000000" stroke-width="8.0" stroke-linejoin="round" stroke-linecap="butt"></path><path d="M336.60138 338.41614C322.31992 338.35358 308.4682 332.85986 297.83295 323.0402L335.55603 281.65408Z" fill-rule="nonzero" fill="#ff9900" stroke="#000000" stroke-width="8.0" stroke-linejoin="round" stroke-linecap="butt"></path><path d="M409.22424 397.19006L409.22424 397.19006C394.2082 395.0475 380.74698 386.76288 371.92218 374.23288L417.51584 340.50824Z" fill-rule="nonzero" fill="#ff9900" stroke="#000000" stroke-width="8.0" stroke-linejoin="round" stroke-linecap="butt"></path><path d="M453.24762 384.25632L453.24762 384.25632C441.16962 394.6037 425.44803 399.34802 409.9052 397.33582L417.49313 340.55823Z" fill-rule="nonzero" fill="#ff9900" stroke="#000000" stroke-width="8.0" stroke-linejoin="round" stroke-linecap="butt"></path><path d="M473.21072 345.32562L473.21072 345.32562C471.85947 360.4463 464.691 374.45996 453.2808 384.2867L417.41376 340.6853Z" fill-rule="nonzero" fill="#ff9900" stroke="#000000" stroke-width="8.0" stroke-linejoin="round" stroke-linecap="butt"></path><path d="M461.5529 304.82523C470.26968 316.13608 474.437 330.4416 473.21667 344.86432L417.39578 340.4992Z" fill-rule="nonzero" fill="#ff9900" stroke="#000000" stroke-width="8.0" stroke-linejoin="round" stroke-linecap="butt"></path><path d="M448.81808 539.3967L448.81808 539.3967C439.61957 551.45734 425.82086 559.1637 410.58023 560.7519L403.39996 504.4914Z" fill-rule="nonzero" fill="#ff9900" stroke="#000000" stroke-width="8.0" stroke-linejoin="round" stroke-linecap="butt"></path><path d="M459.02066 494.65985L459.02066 494.65985C462.15344 510.25226 458.61942 526.2896 449.2776 538.87354L403.43253 504.53558Z" fill-rule="nonzero" fill="#ff9900" stroke="#000000" stroke-width="8.0" stroke-linejoin="round" stroke-linecap="butt"></path><path d="M434.78983 458.22604L434.78983 458.22604C447.3273 466.78723 456.05826 479.88702 459.0634 494.64572L403.50467 504.6669Z" fill-rule="nonzero" fill="#ff9900" stroke="#000000" stroke-width="8.0" stroke-linejoin="round" stroke-linecap="butt"></path><path d="M393.7509 448.63394L393.7509 448.63394C407.87784 446.54465 422.39798 449.88953 434.3901 457.99564L403.3335 504.59177Z" fill-rule="nonzero" fill="#ff9900" stroke="#000000" stroke-width="8.0" stroke-linejoin="round" stroke-linecap="butt"></path><path d="M65.54806 61.27005L78.47617 72.72597L89.33866 58.137897L82.13243 74.83521L98.52436 80.29363L81.142555 79.15723L80.410835 97.11879L76.87452 79.71914L60.030357 85.361565L75.2266 75.7444Z" fill-rule="nonzero" fill="#ffffff"></path><path d="M173.77826 126.34118L184.76772 136.07495L194.00166 123.66473L187.8757 137.86642L201.8097 142.49863L187.0342 141.54198L186.41193 156.81506L183.40611 142.02213L169.08754 146.82921L182.00536 138.64333Z" fill-rule="nonzero" fill="#ffffff"></path><path d="M376.553 70.463646L386.196 79.0183L394.30197 68.12213L388.92334 80.59325L401.15137 84.668335L388.18423 83.82126L387.6356 97.23597L385.00006 84.241325L372.43295 88.456985L383.77127 81.272934Z" fill-rule="nonzero" fill="#ffffff"></path><path d="M424.11258 201.74826L435.47073 211.81967L445.02496 198.99435L438.6835 213.674L453.0889 218.47263L437.8115 217.47372L437.1603 233.26477L434.0598 217.96777L419.25195 222.92853L432.61316 214.47337Z" fill-rule="nonzero" fill="#ffffff"></path><path d="M229.54807 43.270054L242.47618 54.725967L253.33867 40.1379L246.13243 56.835213L262.52438 62.293636L245.14256 61.15723L244.41084 79.11879L240.87453 61.71914L224.03036 67.361565L239.22661 57.7444Z" fill-rule="nonzero" fill="#ffffff"></path><path d="M248.51091 145.99707L255.91914 152.56224L262.14627 144.19154L258.01443 153.77051L267.4085 156.89468L257.44662 156.24965L257.02536 166.55118L255.00046 156.57355L245.34601 159.81609L254.05641 154.29462Z" fill-rule="nonzero" fill="#ffffff"></path></svg>

